<svg width="1280" height="720" xmlns="http://www.w3.org/2000/svg" xmlns:xlink="http://www.w3.org/1999/xlink" overflow="hidden"><g><rect x="0" y="0" width="1280" height="720" fill="#FFFFFF"/><text fill="#595959" font-family="Yu Gothic UI Semilight,Yu Gothic UI Semilight_MSFontService,sans-serif" font-weight="300" font-size="165" transform="translate(181.347 218)">F</text><text fill="#262626" font-family="Yu Gothic UI Semilight,Yu Gothic UI Semilight_MSFontService,sans-serif" font-weight="300" font-size="139" transform="translate(260.18 218)">A</text><text fill="#595959" font-family="Yu Gothic UI Semilight,Yu Gothic UI Semilight_MSFontService,sans-serif" font-weight="300" font-size="165" transform="translate(181.347 318)">P</text><text fill="#262626" font-family="Yu Gothic UI Semilight,Yu Gothic UI Semilight_MSFontService,sans-serif" font-weight="300" font-size="139" transform="translate(287.18 318)">I</text><text fill="#595959" font-family="Yu Gothic UI Semilight,Yu Gothic UI Semilight_MSFontService,sans-serif" font-weight="300" font-size="59" transform="translate(233.743 381)">Solutions</text><path d="M0 0 5.31255 56.8514" stroke="#3A3A3A" stroke-width="1.66667" stroke-miterlimit="8" fill="none" fill-rule="evenodd" transform="matrix(-1 0 0 1 530.313 177)"/><path d="M538.469 301.076 474 232" stroke="#3A3A3A" stroke-width="1.66667" stroke-miterlimit="8" fill="none" fill-rule="evenodd"/><path d="M0 0 36.85 41.9475" stroke="#3A3A3A" stroke-width="1.33333" stroke-miterlimit="8" fill="none" fill-rule="evenodd" transform="matrix(1 0 0 -1 414.5 301.448)"/><path d="M0 0 57.7871 28.7509" stroke="#3A3A3A" stroke-width="1.33333" stroke-miterlimit="8" fill="none" fill-rule="evenodd" transform="matrix(-1 0 0 1 532.287 219.5)"/><path d="M519.5 219.5 565.101 269.655" stroke="#3A3A3A" stroke-width="1.33333" stroke-miterlimit="8" fill="none" fill-rule="evenodd"/><path d="M435.5 212.5 445.133 274.669" stroke="#3A3A3A" stroke-width="1.33333" stroke-miterlimit="8" fill="none" fill-rule="evenodd"/><path d="M441.956 227.682 388.5 194.5" stroke="#3A3A3A" stroke-width="1.33333" stroke-miterlimit="8" fill="none" fill-rule="evenodd"/><path d="M0 0 38.9192 47.6712" stroke="#3A3A3A" stroke-width="1.66667" stroke-miterlimit="8" fill="none" fill-rule="evenodd" transform="matrix(1 0 0 -1 526 300.671)"/><path d="M0 0 50.7315 39.7676" stroke="#3A3A3A" stroke-width="1.66667" stroke-miterlimit="8" fill="none" fill-rule="evenodd" transform="matrix(-1 0 0 1 488.732 232)"/><path d="M489.364 247.736 429 215" stroke="#3A3A3A" stroke-width="1.66667" stroke-miterlimit="8" fill="none" fill-rule="evenodd"/><path d="M0 0 64.383 46.1907" stroke="#3A3A3A" stroke-width="2" stroke-miterlimit="8" fill="none" fill-rule="evenodd" transform="matrix(-1 0 0 1 441.383 215)"/><path d="M0 0 9.33092 72.7702" stroke="#3A3A3A" stroke-width="1.66667" stroke-miterlimit="8" fill="none" fill-rule="evenodd" transform="matrix(-1 0 0 1 393.331 191)"/><path d="M0 0 58.0403 45.5723" stroke="#3A3A3A" stroke-width="1.66667" stroke-miterlimit="8" fill="none" fill-rule="evenodd" transform="matrix(1 0 0 -1 388 206.572)"/><path d="M0 0 79.6886 16.7966" stroke="#3A3A3A" stroke-width="1.66667" stroke-miterlimit="8" fill="none" fill-rule="evenodd" transform="matrix(-1 0 0 1 506.689 151)"/><path d="M0 0 2.98824 72.1518" stroke="#3A3A3A" stroke-width="1.66667" stroke-miterlimit="8" fill="none" fill-rule="evenodd" transform="matrix(1 0 0 -1 435 229.152)"/><path d="M0 0 56.1683 44.4634" stroke="#3A3A3A" stroke-width="1.33333" stroke-miterlimit="8" fill="none" fill-rule="evenodd" transform="matrix(1 0 0 -1 429.5 226.963)"/><path d="M430.5 161.5 485.276 195.791" stroke="#3A3A3A" stroke-width="1.33333" stroke-miterlimit="8" fill="none" fill-rule="evenodd"/><path d="M426.481 300.896 377 245" stroke="#3A3A3A" stroke-width="1.66667" stroke-miterlimit="8" fill="none" fill-rule="evenodd"/><path d="M0 0 86.7216 1.47486" stroke="#3A3A3A" stroke-width="1.66667" stroke-miterlimit="8" fill="none" fill-rule="evenodd" transform="matrix(1 0 0 -1 411 295.475)"/><path d="M476 294 540.539 295.199" stroke="#3A3A3A" stroke-width="1.66667" stroke-miterlimit="8" fill="none" fill-rule="evenodd"/><path d="M486.693 282.967 481 229" stroke="#3A3A3A" stroke-width="2.33333" stroke-miterlimit="8" fill="none" fill-rule="evenodd"/><path d="M481.599 250.597 479 180" stroke="#3A3A3A" stroke-width="1.66667" stroke-miterlimit="8" fill="none" fill-rule="evenodd"/><path d="M494.425 301.018 438 259" stroke="#3A3A3A" stroke-width="1.66667" stroke-miterlimit="8" fill="none" fill-rule="evenodd"/><path d="M452.778 265.403 373 253" stroke="#3A3A3A" stroke-width="1.66667" stroke-miterlimit="8" fill="none" fill-rule="evenodd"/><path d="M531.29 230.948 472.5 182.5" stroke="#3A3A3A" stroke-width="1.33333" stroke-miterlimit="8" fill="none" fill-rule="evenodd"/><path d="M0 0 20.1162 56.4656" stroke="#3A3A3A" stroke-width="1.33333" stroke-miterlimit="8" fill="none" fill-rule="evenodd" transform="matrix(1 0 0 -1 557.5 271.966)"/><path d="M0 0 69.2222 0.548976" stroke="#3A3A3A" stroke-width="1.33333" stroke-miterlimit="8" fill="none" fill-rule="evenodd" transform="matrix(1 0 0 -1 516.5 225.049)"/><path d="M572.5 167.5 577.56 233.283" stroke="#3A3A3A" stroke-width="1.33333" stroke-miterlimit="8" fill="none" fill-rule="evenodd"/><path d="M580.886 175.916 494.5 151.5" stroke="#3A3A3A" stroke-width="1.33333" stroke-miterlimit="8" fill="none" fill-rule="evenodd"/><path d="M0 0 34.0158 43.36" stroke="#3A3A3A" stroke-width="1.33333" stroke-miterlimit="8" fill="none" fill-rule="evenodd" transform="matrix(1 0 0 -1 472.5 194.86)"/><path d="M494 151 537.999 194.809" stroke="#3A3A3A" stroke-width="1.66667" stroke-miterlimit="8" fill="none" fill-rule="evenodd"/><path d="M0 0 71.4614 1.09648" stroke="#3A3A3A" stroke-width="1.66667" stroke-miterlimit="8" fill="none" fill-rule="evenodd" transform="matrix(-1 0 0 1 541.461 188)"/><path d="M0 0 61.1071 11.666" stroke="#3A3A3A" stroke-width="1.66667" stroke-miterlimit="8" fill="none" fill-rule="evenodd" transform="matrix(-1 0 0 1 580.107 176)"/><path d="M523 180 583.405 230.541" stroke="#3A3A3A" stroke-width="1.66667" stroke-miterlimit="8" fill="none" fill-rule="evenodd"/><path d="M426 220.5C426 215.806 430.029 212 435 212 439.971 212 444 215.806 444 220.5 444 225.194 439.971 229 435 229 430.029 229 426 225.194 426 220.5Z" fill="#7F7F7F" fill-rule="evenodd"/><path d="M385 200C385 195.029 388.806 191 393.5 191 398.194 191 402 195.029 402 200 402 204.971 398.194 209 393.5 209 388.806 209 385 204.971 385 200Z" fill="#7F7F7F" fill-rule="evenodd"/><path d="M470 188.5C470 183.806 473.806 180 478.5 180 483.194 180 487 183.806 487 188.5 487 193.194 483.194 197 478.5 197 473.806 197 470 193.194 470 188.5Z" fill="#7F7F7F" fill-rule="evenodd"/><path d="M492 157.5C492 152.806 495.806 149 500.5 149 505.194 149 509 152.806 509 157.5 509 162.194 505.194 166 500.5 166 495.806 166 492 162.194 492 157.5Z" fill="#7F7F7F" fill-rule="evenodd"/><path d="M516 224.5C516 219.806 520.029 216 525 216 529.971 216 534 219.806 534 224.5 534 229.194 529.971 233 525 233 520.029 233 516 229.194 516 224.5Z" fill="#7F7F7F" fill-rule="evenodd"/><path d="M427 168C427 161.925 431.925 157 438 157 444.075 157 449 161.925 449 168 449 174.075 444.075 179 438 179 431.925 179 427 174.075 427 168Z" stroke="#595959" stroke-width="2" stroke-miterlimit="8" fill="#FFFFFF" fill-rule="evenodd"/><path d="M436 265.5C436 260.806 439.806 257 444.5 257 449.194 257 453 260.806 453 265.5 453 270.194 449.194 274 444.5 274 439.806 274 436 270.194 436 265.5Z" fill="#7F7F7F" fill-rule="evenodd"/><path d="M411 295C411 290.029 415.029 286 420 286 424.971 286 429 290.029 429 295 429 299.971 424.971 304 420 304 415.029 304 411 299.971 411 295Z" fill="#7F7F7F" fill-rule="evenodd"/><path d="M523 294.5C523 289.806 527.029 286 532 286 536.971 286 541 289.806 541 294.5 541 299.194 536.971 303 532 303 527.029 303 523 299.194 523 294.5Z" fill="#7F7F7F" fill-rule="evenodd"/><path d="M568 224C568 219.029 572.029 215 577 215 581.971 215 586 219.029 586 224 586 228.971 581.971 233 577 233 572.029 233 568 228.971 568 224Z" fill="#7F7F7F" fill-rule="evenodd"/><path d="M563 176C563 171.029 567.029 167 572 167 576.971 167 581 171.029 581 176 581 180.971 576.971 185 572 185 567.029 185 563 180.971 563 176Z" fill="#7F7F7F" fill-rule="evenodd"/><path d="M470 240 567.497 261.405" stroke="#3A3A3A" stroke-width="2.33333" stroke-miterlimit="8" fill="none" fill-rule="evenodd"/><path d="M546 261C546 254.925 550.925 250 557 250 563.075 250 568 254.925 568 261 568 267.075 563.075 272 557 272 550.925 272 546 267.075 546 261Z" stroke="#595959" stroke-width="2" stroke-miterlimit="8" fill="#FFFFFF" fill-rule="evenodd"/><path d="M470 239.5C470 233.701 474.925 229 481 229 487.075 229 492 233.701 492 239.5 492 245.299 487.075 250 481 250 474.925 250 470 245.299 470 239.5Z" stroke="#595959" stroke-width="2" stroke-miterlimit="8" fill="#FFFFFF" fill-rule="evenodd"/><path d="M519 187.5C519 181.701 523.925 177 530 177 536.075 177 541 181.701 541 187.5 541 193.299 536.075 198 530 198 523.925 198 519 193.299 519 187.5Z" stroke="#595959" stroke-width="2" stroke-miterlimit="8" fill="#FFFFFF" fill-rule="evenodd"/><path d="M476 293.5C476 287.701 480.925 283 487 283 493.075 283 498 287.701 498 293.5 498 299.299 493.075 304 487 304 480.925 304 476 299.299 476 293.5Z" stroke="#595959" stroke-width="2" stroke-miterlimit="8" fill="#FFFFFF" fill-rule="evenodd"/><path d="M373 253C373 246.925 377.925 242 384 242 390.075 242 395 246.925 395 253 395 259.075 390.075 264 384 264 377.925 264 373 259.075 373 253Z" stroke="#595959" stroke-width="2" stroke-miterlimit="8" fill="#FFFFFF" fill-rule="evenodd"/></g></svg>